<svg width="185" height="132" viewBox="0 0 185 132" fill="none" xmlns="http://www.w3.org/2000/svg">
<path d="M92.5 0L122.378 32.5286H62.6221L92.5 0Z" fill="#FFD1A7"/>
<rect x="61.9429" y="38.4429" width="61.1143" height="23.6571" fill="#EABA51"/>
<path fill-rule="evenodd" clip-rule="evenodd" d="M123.041 96.6C122.521 80.1799 109.046 67.0286 92.4998 67.0286C75.9534 67.0286 62.4786 80.1799 61.9583 96.6H73.7996C74.3395 87.2594 82.5054 79.8428 92.4998 79.8428C102.494 79.8428 110.66 87.2594 111.2 96.6H123.041Z" fill="#FFF7EF"/>
<path d="M1.54119 128V107.636H6.46307V124.003H14.9347V128H1.54119ZM29.4933 114.288C29.3806 113.871 29.2149 113.503 28.9961 113.185C28.7774 112.86 28.5089 112.585 28.1907 112.359C27.8725 112.134 27.5079 111.965 27.097 111.852C26.686 111.733 26.2352 111.673 25.7447 111.673C24.757 111.673 23.9019 111.912 23.1793 112.389C22.4634 112.866 21.9099 113.562 21.5188 114.477C21.1277 115.385 20.9322 116.489 20.9322 117.788C20.9322 119.094 21.1211 120.208 21.4989 121.129C21.8768 122.051 22.4237 122.753 23.1396 123.237C23.8555 123.721 24.7239 123.963 25.7447 123.963C26.6462 123.963 27.4085 123.817 28.0316 123.526C28.6614 123.227 29.1386 122.806 29.4634 122.263C29.7882 121.719 29.9507 121.08 29.9507 120.344L30.8654 120.453H25.9137V116.864H34.6936V119.558C34.6936 121.381 34.3058 122.942 33.5302 124.241C32.7613 125.541 31.7007 126.538 30.3484 127.234C29.0027 127.93 27.4549 128.278 25.7049 128.278C23.7627 128.278 22.0558 127.857 20.5842 127.016C19.1126 126.174 17.9658 124.974 17.1438 123.416C16.3219 121.852 15.9109 119.996 15.9109 117.848C15.9109 116.178 16.1595 114.696 16.6566 113.403C17.1538 112.104 17.8465 111.004 18.7347 110.102C19.6296 109.201 20.6637 108.518 21.837 108.054C23.0169 107.59 24.2864 107.358 25.6453 107.358C26.8252 107.358 27.9222 107.527 28.9364 107.865C29.9573 108.203 30.8588 108.68 31.641 109.297C32.4298 109.913 33.0695 110.646 33.56 111.494C34.0506 112.343 34.3555 113.274 34.4748 114.288H29.4933ZM42.4901 128V107.636H47.412V124.003H55.8836V128H42.4901ZM57.8715 128V112.727H62.7337V128H57.8715ZM60.3076 110.947C59.6248 110.947 59.0382 110.722 58.5476 110.271C58.0571 109.814 57.8118 109.264 57.8118 108.621C57.8118 107.984 58.0571 107.441 58.5476 106.99C59.0382 106.533 59.6248 106.304 60.3076 106.304C60.997 106.304 61.5836 106.533 62.0675 106.99C62.5581 107.441 62.8033 107.984 62.8033 108.621C62.8033 109.264 62.5581 109.814 62.0675 110.271C61.5836 110.722 60.997 110.947 60.3076 110.947ZM73.9489 112.727V116.307H64.1251V112.727H73.9489ZM66.1734 128V111.952C66.1734 110.772 66.3954 109.794 66.8396 109.018C67.2837 108.236 67.9002 107.653 68.689 107.268C69.4778 106.877 70.3893 106.682 71.4234 106.682C72.0995 106.682 72.7359 106.735 73.3325 106.841C73.9357 106.94 74.3831 107.03 74.6748 107.109L73.8992 110.669C73.7202 110.609 73.5015 110.56 73.243 110.52C72.9911 110.48 72.7524 110.46 72.5271 110.46C71.957 110.46 71.5659 110.586 71.3538 110.838C71.1416 111.09 71.0356 111.435 71.0356 111.872V128H66.1734ZM82.3751 128.288C80.7775 128.288 79.3988 127.973 78.2387 127.344C77.0853 126.707 76.1971 125.803 75.5739 124.629C74.9575 123.449 74.6492 122.047 74.6492 120.423C74.6492 118.846 74.9608 117.467 75.5839 116.287C76.207 115.1 77.0853 114.179 78.2188 113.523C79.3524 112.86 80.6881 112.528 82.2259 112.528C83.3131 112.528 84.3074 112.697 85.2089 113.036C86.1104 113.374 86.8893 113.874 87.5455 114.537C88.2018 115.2 88.7122 116.018 89.0768 116.993C89.4414 117.961 89.6237 119.071 89.6237 120.324V121.537H76.3495V118.713H85.0995C85.0929 118.196 84.9703 117.735 84.7316 117.331C84.493 116.927 84.1649 116.612 83.7472 116.386C83.3363 116.154 82.8623 116.038 82.3254 116.038C81.7818 116.038 81.2946 116.161 80.8637 116.406C80.4328 116.645 80.0915 116.973 79.8396 117.391C79.5877 117.802 79.4551 118.269 79.4418 118.793V121.666C79.4418 122.289 79.5645 122.836 79.8097 123.307C80.055 123.771 80.403 124.132 80.8538 124.391C81.3045 124.649 81.8415 124.778 82.4646 124.778C82.8954 124.778 83.2865 124.719 83.6379 124.599C83.9892 124.48 84.2908 124.304 84.5427 124.072C84.7946 123.84 84.9835 123.555 85.1095 123.217L89.5739 123.347C89.3883 124.348 88.9807 125.219 88.3509 125.962C87.7278 126.697 86.9092 127.271 85.895 127.682C84.8808 128.086 83.7075 128.288 82.3751 128.288ZM104.881 117.391L100.416 117.51C100.37 117.192 100.244 116.91 100.038 116.665C99.833 116.413 99.5645 116.217 99.2331 116.078C98.9082 115.932 98.5304 115.859 98.0995 115.859C97.5361 115.859 97.0555 115.972 96.6578 116.197C96.2667 116.423 96.0744 116.728 96.0811 117.112C96.0744 117.411 96.1938 117.669 96.439 117.888C96.6909 118.107 97.1384 118.282 97.7814 118.415L100.725 118.972C102.249 119.263 103.383 119.747 104.125 120.423C104.874 121.099 105.252 121.994 105.259 123.108C105.252 124.155 104.94 125.067 104.324 125.842C103.714 126.618 102.879 127.221 101.818 127.652C100.758 128.076 99.5446 128.288 98.1791 128.288C95.9982 128.288 94.278 127.841 93.0186 126.946C91.7657 126.045 91.0498 124.838 90.8708 123.327L95.6734 123.207C95.7795 123.764 96.0546 124.188 96.4987 124.48C96.9428 124.772 97.5096 124.918 98.199 124.918C98.8221 124.918 99.3292 124.802 99.7203 124.57C100.111 124.338 100.31 124.029 100.317 123.645C100.31 123.3 100.158 123.025 99.8595 122.82C99.5612 122.607 99.0939 122.442 98.4575 122.322L95.7927 121.815C94.2615 121.537 93.1213 121.023 92.3723 120.274C91.6232 119.518 91.252 118.557 91.2586 117.391C91.252 116.37 91.5238 115.498 92.074 114.776C92.6242 114.046 93.4064 113.49 94.4206 113.105C95.4348 112.721 96.6313 112.528 98.01 112.528C100.078 112.528 101.709 112.963 102.902 113.831C104.095 114.693 104.755 115.879 104.881 117.391ZM115.713 112.727V116.307H106.078V112.727H115.713ZM108.097 109.068H112.959V123.197C112.959 123.496 113.005 123.738 113.098 123.923C113.198 124.102 113.34 124.232 113.526 124.311C113.711 124.384 113.933 124.42 114.192 124.42C114.377 124.42 114.573 124.404 114.779 124.371C114.991 124.331 115.15 124.298 115.256 124.271L115.992 127.781C115.76 127.848 115.431 127.93 115.007 128.03C114.59 128.129 114.089 128.192 113.506 128.219C112.366 128.272 111.388 128.139 110.573 127.821C109.764 127.496 109.144 126.992 108.713 126.31C108.289 125.627 108.083 124.768 108.097 123.734V109.068ZM121.939 128.259C120.965 128.259 120.1 128.096 119.344 127.771C118.595 127.44 118.002 126.943 117.564 126.28C117.134 125.61 116.918 124.772 116.918 123.764C116.918 122.916 117.067 122.2 117.366 121.616C117.664 121.033 118.075 120.559 118.598 120.195C119.122 119.83 119.725 119.555 120.408 119.369C121.091 119.177 121.82 119.048 122.596 118.982C123.464 118.902 124.163 118.819 124.694 118.733C125.224 118.64 125.608 118.511 125.847 118.345C126.092 118.173 126.215 117.931 126.215 117.619V117.57C126.215 117.059 126.039 116.665 125.688 116.386C125.337 116.108 124.863 115.969 124.266 115.969C123.623 115.969 123.106 116.108 122.715 116.386C122.324 116.665 122.075 117.049 121.969 117.54L117.485 117.381C117.617 116.453 117.959 115.624 118.509 114.895C119.066 114.159 119.828 113.582 120.796 113.165C121.77 112.741 122.94 112.528 124.306 112.528C125.28 112.528 126.179 112.644 127 112.876C127.822 113.102 128.538 113.433 129.148 113.871C129.758 114.302 130.229 114.832 130.56 115.462C130.898 116.091 131.067 116.811 131.067 117.619V128H126.493V125.872H126.374C126.102 126.389 125.754 126.827 125.33 127.185C124.912 127.543 124.419 127.811 123.848 127.99C123.285 128.169 122.649 128.259 121.939 128.259ZM123.441 125.077C123.964 125.077 124.435 124.971 124.853 124.759C125.277 124.546 125.615 124.255 125.867 123.884C126.119 123.506 126.245 123.068 126.245 122.571V121.119C126.106 121.192 125.937 121.259 125.738 121.318C125.545 121.378 125.333 121.434 125.101 121.487C124.869 121.54 124.631 121.587 124.385 121.626C124.14 121.666 123.905 121.703 123.679 121.736C123.222 121.809 122.831 121.921 122.506 122.074C122.188 122.226 121.943 122.425 121.77 122.67C121.605 122.909 121.522 123.194 121.522 123.526C121.522 124.029 121.701 124.414 122.059 124.679C122.423 124.944 122.884 125.077 123.441 125.077ZM142.101 112.727V116.307H132.466V112.727H142.101ZM134.485 109.068H139.347V123.197C139.347 123.496 139.393 123.738 139.486 123.923C139.585 124.102 139.728 124.232 139.913 124.311C140.099 124.384 140.321 124.42 140.58 124.42C140.765 124.42 140.961 124.404 141.166 124.371C141.378 124.331 141.538 124.298 141.644 124.271L142.379 127.781C142.147 127.848 141.819 127.93 141.395 128.03C140.977 128.129 140.477 128.192 139.894 128.219C138.753 128.272 137.776 128.139 136.96 127.821C136.152 127.496 135.532 126.992 135.101 126.31C134.677 125.627 134.471 124.768 134.485 123.734V109.068ZM144.022 128V112.727H148.884V128H144.022ZM146.458 110.947C145.775 110.947 145.188 110.722 144.698 110.271C144.207 109.814 143.962 109.264 143.962 108.621C143.962 107.984 144.207 107.441 144.698 106.99C145.188 106.533 145.775 106.304 146.458 106.304C147.147 106.304 147.734 106.533 148.218 106.99C148.708 107.441 148.954 107.984 148.954 108.621C148.954 109.264 148.708 109.814 148.218 110.271C147.734 110.722 147.147 110.947 146.458 110.947ZM158.548 128.288C156.944 128.288 155.565 127.96 154.412 127.304C153.265 126.641 152.38 125.72 151.757 124.54C151.14 123.353 150.832 121.978 150.832 120.413C150.832 118.842 151.14 117.467 151.757 116.287C152.38 115.1 153.265 114.179 154.412 113.523C155.565 112.86 156.944 112.528 158.548 112.528C160.152 112.528 161.528 112.86 162.675 113.523C163.828 114.179 164.713 115.1 165.329 116.287C165.952 117.467 166.264 118.842 166.264 120.413C166.264 121.978 165.952 123.353 165.329 124.54C164.713 125.72 163.828 126.641 162.675 127.304C161.528 127.96 160.152 128.288 158.548 128.288ZM158.578 124.619C159.161 124.619 159.655 124.44 160.059 124.082C160.464 123.724 160.772 123.227 160.984 122.591C161.203 121.955 161.312 121.219 161.312 120.384C161.312 119.535 161.203 118.793 160.984 118.156C160.772 117.52 160.464 117.023 160.059 116.665C159.655 116.307 159.161 116.128 158.578 116.128C157.975 116.128 157.464 116.307 157.047 116.665C156.636 117.023 156.321 117.52 156.102 118.156C155.89 118.793 155.784 119.535 155.784 120.384C155.784 121.219 155.89 121.955 156.102 122.591C156.321 123.227 156.636 123.724 157.047 124.082C157.464 124.44 157.975 124.619 158.578 124.619ZM173.057 119.29V128H168.195V112.727H172.818V115.531H172.987C173.325 114.597 173.902 113.864 174.718 113.334C175.533 112.797 176.504 112.528 177.631 112.528C178.705 112.528 179.636 112.77 180.425 113.254C181.22 113.732 181.837 114.401 182.274 115.263C182.718 116.118 182.937 117.119 182.931 118.266V128H178.068V119.22C178.075 118.372 177.86 117.709 177.422 117.232C176.991 116.754 176.391 116.516 175.622 116.516C175.112 116.516 174.661 116.628 174.27 116.854C173.886 117.072 173.587 117.387 173.375 117.798C173.17 118.209 173.064 118.706 173.057 119.29Z" fill="#FFF7EF"/>
</svg>
