<svg width="22" height="21" viewBox="0 0 22 21" fill="none" xmlns="http://www.w3.org/2000/svg">
<g clip-path="url(#clip0_136_2945)">
<path d="M16.6875 0H5.3125C4.03657 0.00138965 2.8133 0.508866 1.91108 1.41108C1.00887 2.3133 0.50139 3.53657 0.5 4.8125L0.5 16.1875C0.50139 17.4634 1.00887 18.6867 1.91108 19.5889C2.8133 20.4911 4.03657 20.9986 5.3125 21H16.6875C17.9634 20.9986 19.1867 20.4911 20.0889 19.5889C20.9911 18.6867 21.4986 17.4634 21.5 16.1875V4.8125C21.4986 3.53657 20.9911 2.3133 20.0889 1.41108C19.1867 0.508866 17.9634 0.00138965 16.6875 0V0ZM18.875 16.1875C18.875 16.7677 18.6445 17.3241 18.2343 17.7343C17.8241 18.1445 17.2677 18.375 16.6875 18.375H16.25V17.5C16.25 16.1076 15.6969 14.7723 14.7123 13.7877C13.7277 12.8031 12.3924 12.25 11 12.25C9.60761 12.25 8.27226 12.8031 7.28769 13.7877C6.30312 14.7723 5.75 16.1076 5.75 17.5V18.375H5.3125C4.73234 18.375 4.17594 18.1445 3.7657 17.7343C3.35547 17.3241 3.125 16.7677 3.125 16.1875V4.8125C3.125 4.23234 3.35547 3.67594 3.7657 3.2657C4.17594 2.85547 4.73234 2.625 5.3125 2.625H16.6875C17.2677 2.625 17.8241 2.85547 18.2343 3.2657C18.6445 3.67594 18.875 4.23234 18.875 4.8125V16.1875Z" fill="#FFD1A7"/>
<path d="M11 10.4998C12.6914 10.4998 14.0625 9.12863 14.0625 7.43726C14.0625 5.74588 12.6914 4.37476 11 4.37476C9.30863 4.37476 7.9375 5.74588 7.9375 7.43726C7.9375 9.12863 9.30863 10.4998 11 10.4998Z" fill="#FFD1A7"/>
</g>
<defs>
<clipPath id="clip0_136_2945">
<rect width="21" height="21" fill="white" transform="translate(0.5)"/>
</clipPath>
</defs>
</svg>
