<svg width="22" height="21" viewBox="0 0 22 21" fill="none" xmlns="http://www.w3.org/2000/svg">
<g clip-path="url(#clip0_136_2924)">
<path d="M20.6026 7.6084L14.4024 1.40817C12.5216 -0.467761 9.47742 -0.467761 7.59665 1.40817L1.39641 7.6084C0.820224 8.18151 0.497268 8.9613 0.499523 9.77402V18.8547C0.501451 20.0401 1.46236 21.0001 2.64767 21.0011H19.3514C20.5367 21.0002 21.4976 20.0401 21.4995 18.8547V9.77402C21.5018 8.9613 21.1788 8.18151 20.6026 7.6084ZM18.8745 18.3761H14.4995V15.5919C14.4995 13.7468 13.0038 12.2511 11.1588 12.2511H10.8403C8.99524 12.2511 7.49952 13.7468 7.49952 15.5919V18.3761H3.12452V9.77402C3.12481 9.65799 3.17066 9.54676 3.25228 9.46428L9.45252 3.26404C10.3067 2.40964 11.6917 2.40948 12.5461 3.26363C12.5462 3.26375 12.5464 3.26391 12.5465 3.26404L18.7468 9.46428C18.8283 9.54676 18.8742 9.65799 18.8745 9.77402V18.3761H18.8745Z" fill="#FFD1A7"/>
</g>
<defs>
<clipPath id="clip0_136_2924">
<rect width="21" height="21" fill="white" transform="translate(0.5)"/>
</clipPath>
</defs>
</svg>
