<svg width="22" height="21" viewBox="0 0 22 21" fill="none" xmlns="http://www.w3.org/2000/svg">
<g clip-path="url(#clip0_136_2937)">
<path d="M6.74313 12.7304C6.7755 12.7409 8.42313 13.1548 8.42313 13.1548C8.42313 13.1548 8.95513 14.8908 8.97088 14.9293C9.17316 15.4259 9.51921 15.8507 9.96463 16.1493C10.4101 16.4478 10.9345 16.6065 11.4708 16.6049H11.5145C12.0582 16.5978 12.5871 16.4263 13.0316 16.1131C13.476 15.7998 13.8153 15.3593 14.0048 14.8496C14.0048 14.8496 16.1581 9.11488 16.1695 9.07463C16.3048 8.5573 16.3023 8.01355 16.1623 7.49747C16.0222 6.9814 15.7495 6.51099 15.3712 6.13305C14.9929 5.75511 14.5222 5.48281 14.006 5.34324C13.4898 5.20367 12.9461 5.20169 12.4289 5.3375C12.3781 5.34625 6.625 7.62913 6.625 7.62913C6.10488 7.83084 5.65959 8.18801 5.34983 8.65197C5.04007 9.11594 4.8809 9.66413 4.89401 10.2218C4.90711 10.7796 5.09186 11.3197 5.42307 11.7686C5.75428 12.2175 6.21585 12.5533 6.74488 12.7304H6.74313ZM7.58313 10.0721L13.1534 7.86013C13.2207 7.85182 13.289 7.85928 13.3529 7.8819C13.4169 7.90453 13.4747 7.9417 13.5217 7.9905C13.5688 8.03929 13.604 8.09837 13.6243 8.16306C13.6447 8.22775 13.6497 8.29628 13.639 8.36325L11.5469 13.9256C11.5424 13.9416 11.5327 13.9555 11.5194 13.9654C11.5061 13.9752 11.4899 13.9803 11.4734 13.9799C11.434 13.9799 11.4235 13.972 11.413 13.9589L10.7174 11.6786C10.6513 11.4619 10.5303 11.266 10.3661 11.1099C10.2019 10.9538 10.0001 10.8428 9.78025 10.7879L7.54988 10.2305C7.53238 10.22 7.52013 10.2034 7.51925 10.1605C7.51838 10.0975 7.54113 10.0888 7.5875 10.0721H7.58313ZM11 21C13.0767 21 15.1068 20.3842 16.8335 19.2304C18.5602 18.0767 19.906 16.4368 20.7007 14.5182C21.4955 12.5996 21.7034 10.4884 21.2982 8.45156C20.8931 6.41476 19.8931 4.54383 18.4246 3.07538C16.9562 1.60693 15.0853 0.606904 13.0484 0.201759C11.0116 -0.203386 8.90045 0.0045495 6.98182 0.79927C5.0632 1.59399 3.42332 2.9398 2.26957 4.66652C1.11581 6.39323 0.5 8.4233 0.5 10.5C0.503011 13.2839 1.61022 15.9528 3.5787 17.9213C5.54718 19.8898 8.21615 20.997 11 21ZM11 2.625C12.5575 2.625 14.0801 3.08687 15.3751 3.95218C16.6702 4.8175 17.6795 6.0474 18.2756 7.48637C18.8716 8.92534 19.0275 10.5087 18.7237 12.0363C18.4198 13.5639 17.6698 14.9671 16.5685 16.0685C15.4671 17.1698 14.0639 17.9198 12.5363 18.2237C11.0087 18.5275 9.42534 18.3716 7.98637 17.7756C6.5474 17.1795 5.31749 16.1702 4.45218 14.8751C3.58686 13.5801 3.125 12.0575 3.125 10.5C3.12732 8.41214 3.95775 6.41044 5.43409 4.9341C6.91044 3.45775 8.91213 2.62732 11 2.625Z" fill="#FFD1A7"/>
</g>
<defs>
<clipPath id="clip0_136_2937">
<rect width="21" height="21" fill="white" transform="translate(0.5)"/>
</clipPath>
</defs>
</svg>
