<svg width="21" height="21" viewBox="0 0 21 21" fill="none" xmlns="http://www.w3.org/2000/svg">
<g clip-path="url(#clip0_136_2942)">
<path d="M10.5 0C8.4233 0 6.39323 0.615814 4.66652 1.76957C2.9398 2.92332 1.59399 4.5632 0.79927 6.48182C0.0045495 8.40045 -0.203386 10.5116 0.201759 12.5484C0.606904 14.5853 1.60693 16.4562 3.07538 17.9246C4.54383 19.3931 6.41476 20.3931 8.45156 20.7982C10.4884 21.2034 12.5996 20.9955 14.5182 20.2007C16.4368 19.406 18.0767 18.0602 19.2304 16.3335C20.3842 14.6068 21 12.5767 21 10.5C20.997 7.71615 19.8898 5.04718 17.9213 3.0787C15.9528 1.11022 13.2839 0.00301095 10.5 0V0ZM10.5 18.375C8.94248 18.375 7.41993 17.9131 6.12489 17.0478C4.82985 16.1825 3.82049 14.9526 3.22445 13.5136C2.62841 12.0747 2.47246 10.4913 2.77632 8.96367C3.08018 7.43606 3.8302 6.03287 4.93154 4.93153C6.03288 3.8302 7.43607 3.08017 8.96367 2.77632C10.4913 2.47246 12.0747 2.62841 13.5136 3.22445C14.9526 3.82049 16.1825 4.82985 17.0478 6.12489C17.9131 7.41992 18.375 8.94247 18.375 10.5C18.3727 12.5879 17.5423 14.5896 16.0659 16.0659C14.5896 17.5423 12.5879 18.3727 10.5 18.375Z" fill="#FFD1A7"/>
<path d="M10.5044 16.6252C11.2293 16.6252 11.8169 16.0376 11.8169 15.3127C11.8169 14.5879 11.2293 14.0002 10.5044 14.0002C9.77952 14.0002 9.19189 14.5879 9.19189 15.3127C9.19189 16.0376 9.77952 16.6252 10.5044 16.6252Z" fill="#FFD1A7"/>
<path d="M11.1626 4.36329C10.6274 4.26734 10.0776 4.28992 9.55207 4.42945C9.02652 4.56899 8.53797 4.82208 8.12084 5.17088C7.7037 5.51969 7.36813 5.95573 7.13778 6.44828C6.90743 6.94083 6.78789 7.47791 6.7876 8.02166C6.7876 8.36976 6.92588 8.7036 7.17202 8.94974C7.41816 9.19588 7.752 9.33416 8.1001 9.33416C8.44819 9.33416 8.78203 9.19588 9.02817 8.94974C9.27431 8.7036 9.41259 8.36976 9.41259 8.02166C9.41339 7.82911 9.46509 7.64019 9.56244 7.47405C9.6598 7.30792 9.79936 7.17049 9.96696 7.07569C10.1346 6.98088 10.3243 6.93209 10.5168 6.93424C10.7094 6.9364 10.8979 6.98943 11.0633 7.08796C11.2288 7.18649 11.3652 7.32701 11.4588 7.49528C11.5525 7.66355 11.5999 7.85359 11.5964 8.04611C11.5929 8.23864 11.5385 8.42681 11.4388 8.59155C11.3391 8.75629 11.1976 8.89174 11.0287 8.98416C10.4873 9.21092 10.0272 9.59624 9.70889 10.0894C9.3906 10.5827 9.22905 11.1606 9.24547 11.7474C9.24547 12.0955 9.38375 12.4293 9.62989 12.6755C9.87603 12.9216 10.2099 13.0599 10.558 13.0599C10.9061 13.0599 11.2399 12.9216 11.486 12.6755C11.7322 12.4293 11.8705 12.0955 11.8705 11.7474C11.8697 11.6835 11.8743 11.6197 11.8845 11.5567C12.007 11.4448 12.146 11.3524 12.2966 11.2828C12.9687 10.9123 13.5097 10.3428 13.8453 9.65254C14.1808 8.96227 14.2944 8.18506 14.1706 7.42762C14.0467 6.67018 13.6914 5.96965 13.1534 5.42224C12.6155 4.87482 11.9213 4.50735 11.1661 4.37029L11.1626 4.36329Z" fill="#FFD1A7"/>
</g>
<defs>
<clipPath id="clip0_136_2942">
<rect width="21" height="21" fill="white"/>
</clipPath>
</defs>
</svg>
